<?xml version="1.0" encoding="UTF-8" standalone="no"?>
<svg
   viewBox="0 0 512 512"
   style="height: 512px; width: 512px;"
   version="1.1"
   id="svg2"
   sodipodi:docname="17.svg"
   inkscape:version="1.3.1 (91b66b0783, 2023-11-16)"
   xmlns:inkscape="http://www.inkscape.org/namespaces/inkscape"
   xmlns:sodipodi="http://sodipodi.sourceforge.net/DTD/sodipodi-0.dtd"
   xmlns="http://www.w3.org/2000/svg"
   xmlns:svg="http://www.w3.org/2000/svg">
  <sodipodi:namedview
     id="namedview1"
     pagecolor="#ffffff"
     bordercolor="#000000"
     borderopacity="0.25"
     inkscape:showpageshadow="2"
     inkscape:pageopacity="0.0"
     inkscape:pagecheckerboard="0"
     inkscape:deskcolor="#d1d1d1"
     inkscape:zoom="1.5175781"
     inkscape:cx="256"
     inkscape:cy="256"
     inkscape:window-width="1920"
     inkscape:window-height="991"
     inkscape:window-x="-9"
     inkscape:window-y="-9"
     inkscape:window-maximized="1"
     inkscape:current-layer="svg2" />
  <defs
     id="defs2">
    <clipPath
       clipPathUnits="userSpaceOnUse"
       id="clipPath3">
      <path
         id="lpe_path-effect3"
         class="powerclip"
         d="M -5,-5 H 517 V 517 H -5 Z M 248,20.3 72.33,132.6 248,128.8 Z m 16,0 v 108.5 l 175.7,3.8 z m 51.4,58.9 c -6.9,-3.72 -16.9,-6.49 -22.7,0.9 -1.5,8.7 9.3,15.9 13.5,18.3 4.3,2.4 12,-2.9 4.1,-5.1 -3.7,-1.1 -11.4,-7.2 -5.3,-9.9 5.9,-0.3 12.7,2.1 15,7.9 2.6,4.7 10.4,7.5 12,0.7 5.3,-1.9 12.7,1.4 16.3,5.9 4.7,6.4 -5.3,3.5 -10,5.5 -5.1,2.2 4.9,8.4 14.6,8.3 6.7,0 9.9,-8.1 5.2,-12.6 -5.3,-9.9 -16.9,-14.9 -27.6,-15.7 -6.9,3 -9,-0.7 -15.1,-4.2 z M 206.9,75.7 c -5.3,1.3 -15.9,0.6 -13.2,8.8 4.1,-1.2 13.6,-3.1 12.2,3.4 -4.8,7.2 -16.2,9.9 -24.2,5.7 -9.2,-5.8 -20.4,-5.2 -30.3,-1.3 v 24.4 c 11.8,-4.7 9,-3 11.1,-17.8 1.4,-5.9 11.2,1.1 14.9,3.4 6.7,2.5 15.1,1.5 21.6,-1.9 8.3,-1.7 13.8,-7.8 18.1,-14.8 2.1,-6.9 -4.7,-9.4 -10.2,-9.9 z m 35,69.2 -186.51,4.1 71.21,192.9 z m 28.2,0 115.3,197 L 456.6,149 Z M 256,152.4 138.9,352.6 h 234.2 z m 133.3,21.1 c -6.1,-3.6 -15,-4.3 -21.1,0.5 -7.5,7.3 -5.1,21.4 -1.7,31.3 5.8,13.4 15.2,34.2 29.7,32.6 14.5,-1.6 13.9,-7.8 15.2,-21.4 -0.6,-16.8 -8.2,-34.7 -22.1,-43 z m -223.7,16.1 c -2.2,-6.8 -12.7,-13.9 -21.2,-10 -16.4,6.7 -22.8,24.8 -27.2,40.6 -4.1,10.8 1.5,25.9 14.2,26.6 h 5.6 c 11.8,-3.3 19.3,-16.4 19.7,-28.1 0,-9.9 -9.9,-21 -20.3,-17 1.4,-6 8.1,-13.9 15,-11.6 5.6,2.3 4.5,12.3 9.4,11.6 4.3,-0.7 6.9,-8.1 4.8,-12.1 z m 213.9,-8.4 c -7.1,-0.1 -4.4,10 -3.3,14.5 3.5,11.5 7.3,26.6 18.9,30 6.8,-1.2 4.4,-12.8 3.7,-16.5 -4.7,-10.9 -7.1,-23.3 -19.3,-28 z M 52,186 v 173.2 l 61.9,-5.7 z m 408,0 -61.9,167.5 61.9,5.7 z m -117.9,0.7 c -5.8,-0.9 -8.3,4.4 -8,11.3 0.4,6.8 -9.4,8 -8.1,11.9 1.6,10.3 8.5,4.4 14.6,1.4 l 20,43.3 10,-4.4 z m -212,27.4 c -2.4,5.1 -4.1,10.3 -2.7,15.9 1.7,8.8 13.5,6.4 15.6,-0.8 2.7,-5 3.9,-11.7 -0.5,-15.7 -4.1,-3.4 -8.9,-2.8 -12.4,0.6 z m 328.4,41.6 c 1,-4.5 -3.2,-15.1 -8.9,-8.9 -7,13 -12,29.1 -7,43.5 2.5,5 10,-4.1 9.3,-8.1 4.6,-7.5 2.3,7 1,10.2 -1.1,2.7 -5.6,12.9 -6.6,5.6 -4.2,4.2 -7,11.4 -1.2,15.5 1.5,-0.6 2.8,-1.3 3.7,-2.5 10.8,-16.1 9.6,-36.7 9.7,-55.3 z M 59.93,245.5 c -1.76,-0.3 -2.01,7.2 -6.42,2.4 -2.62,-4.3 -1.45,11 3.17,12.7 2.93,6.9 1.28,14.8 1.28,23.2 -0.02,8.4 -2.85,19.4 4.45,26.4 v -61.1 c -1.14,-2.6 -1.89,-3.5 -2.48,-3.6 z m 178.77,7.6 c -8.8,-4.7 -19.9,-4.3 -28.7,2 -4.8,3.7 -6.8,9.6 -8.2,15.2 -1.8,5.4 4.3,5.3 7.2,4.9 4.3,-0.5 6.7,-5.8 8.7,-9.6 2.2,-5 9,-5.6 13.2,-2.7 4,2.2 6.4,7 4.6,11.5 -2.7,8.6 -11.2,13 -18.1,17.9 -9.6,5.5 -16.6,15.6 -17,26.8 15.2,0 30.6,-0.6 45.1,0.6 5.3,-1 4.3,-7.7 3.8,-11.7 -4.8,0 -31.4,1.4 -30.2,-1.6 3.4,-8.6 28.3,-14.5 30.4,-29.7 3,-9.2 -2.7,-19.1 -10.8,-23.6 z m 53.3,-1.4 c -9,-3.3 -18.2,-0.6 -25,7 -8.7,11.1 -10,26.4 -6.9,39.8 2.4,11.7 12.3,22.7 24.8,22.8 6.8,0 12.5,-4.3 17,-9.1 9.9,-12.8 10.5,-31.2 4.4,-45.9 -2.3,-6.7 -7.5,-12.4 -14.3,-14.6 z m 156.1,8.1 c -1.6,5.9 -3.3,13.4 -0.7,19.3 5.1,-2 5.4,-9.6 6.6,-14.5 0.9,-6.1 -3.5,-12.6 -5.9,-4.8 z m -176.2,21.1 c 0.6,10.5 1.7,22.8 9.7,28.2 4.9,1.8 9.7,-2.2 11.1,-6.7 1.9,-6.3 2.3,-12.9 2.4,-19.4 -0.2,-7.1 -1.5,-15 -6.7,-20.1 -12.2,-4.4 -15.3,10.9 -16.5,18 z M 434,266.8 c -5.7,7.3 -4.4,17.6 -10.5,24.7 -3,10 1.5,8.4 6.1,0.9 v 42.3 L 434,328 Z M 83.85,279 c -2.23,-4.5 -6.19,-13.7 -11.39,-9.9 -3.09,12 -3.85,24.4 -2.3,36.7 2.03,10.6 3.07,24.2 13.43,30 l 2.22,-1.1 c 4.88,-14.4 0.55,-30.9 -7.29,-43.5 -2.21,-1.6 -3.19,-0.9 -3.39,0.7 -0.82,-5.1 0.19,-9.4 3.14,-13.4 1.25,3.1 2.66,6.2 4.21,9.2 -0.21,1.2 1.44,4.8 3.41,6.1 3.08,3 -1.24,-11.2 -2.04,-14.8 z m -7.05,20.2 c -4.06,4.7 -2.26,12.8 -0.38,18.4 1.11,5.5 6.92,10.2 6.06,1.6 0.69,-11.1 -2.33,-12.7 -5.68,-20 z M 143.2,368.6 256,491.7 368.8,368.6 Z m -21.4,0.3 -53.84,4.9 64.24,41.1 c -2.6,-2.7 -4.9,-5.7 -7.1,-8.8 -5.2,-6.9 -10.5,-13.6 -18.9,-16.6 -8.75,-6.5 -4.2,-5.3 2.9,-2.6 -1,-1.8 -0.7,-2.6 0.1,-2.6 2.2,-0.2 8.4,4.2 9.8,6.3 l 24.7,31.6 65.1,41.7 z m 268.4,0 -42.4,46.3 c 6.4,-3.1 11.3,-8.5 17,-12.4 2.4,-1.4 3.7,-1.9 4.3,-1.9 2.1,0 -5.4,7.1 -7.7,10.3 -9.4,9.8 -16,23 -28.6,29.1 l 18.9,-24.5 c -2.3,1.3 -6,3.2 -8.2,4.1 l -40.3,44 74.5,-47.6 c 5.4,-6.7 1.9,-5.6 -5.7,-0.9 l -11.4,6 c 11.4,-13.7 30.8,-28.3 40,-35.6 9.2,-7.3 15.9,-9.8 8.2,-1.5 l -12.6,16 c 10,-7.6 0.9,3.9 -4.5,5.5 -0.7,1 -1.4,2 -2.2,2.9 L 444,373.8 Z M 236,385.8 c -5.3,-0.4 -10.5,-0.5 -14.9,4 -1.7,3.4 -6,3.1 -9.3,3.2 -3.5,-0.9 -8.3,3 -4.5,5.9 4.9,2 10.3,-1.1 15.3,0.3 v 30 H 236 Z m 29,0.5 c -3.2,0.2 -4.8,4.2 -4.9,7.2 0,4.4 -1.9,8.3 -2.7,12.5 -0.6,4.9 4.3,5.2 9,4.4 4.7,-0.8 12.5,-3.3 17.3,-1.8 4.8,1.5 7.5,3.6 6.9,7.8 -0.4,6.6 -14.7,10 -20.7,4.7 -1.7,-3.5 -18.6,-7.4 -12.2,3.2 5,6 13.3,6.5 20.6,7.1 8.3,0.6 19.5,-4.1 25.3,-10.9 2,-3.4 1.4,-7.6 -0.7,-10.7 -4.1,-6.3 -12.1,-8.1 -19.1,-9.2 -5.7,-1.4 -19.6,5.3 -11.4,-5.2 4.9,-2.2 18.2,-0.3 25.9,-0.6 4.1,-0.1 4.8,-4.9 3.3,-7.9 -12.4,0 -24.5,0.6 -36.6,-0.6 z m 133.5,5 c -0.2,-0.2 -7,5.8 -9.9,8.1 l -15.8,13.1 c 10.6,-6.5 19.3,-12 25.7,-21.2 z m -247,14.2 c -1,0 -1.5,0.7 -1.2,2.6 -7.3,-4.2 -11.1,-2.8 -2.1,2.2 9.9,3 14.7,12.3 21.2,19.6 4.3,6.6 9.9,11.6 17.6,13.7 l -26.1,-31.1 c -1.9,-2.4 -7,-7 -9.4,-7 z" />
    </clipPath>
    <filter
       id="mask-powermask-path-effect28_inverse"
       style="color-interpolation-filters:sRGB"
       height="100"
       width="100"
       x="-50"
       y="-50">
      <feColorMatrix
         id="mask-powermask-path-effect28_primitive1"
         values="1"
         type="saturate"
         result="fbSourceGraphic" />
      <feColorMatrix
         id="mask-powermask-path-effect28_primitive2"
         values="-1 0 0 0 1 0 -1 0 0 1 0 0 -1 0 1 0 0 0 1 0 "
         in="fbSourceGraphic" />
    </filter>
  </defs>
  <path
     id="path1"
     clip-path="url(#clipPath3)"
     d="M 0 0 L 0 512 L 512 512 L 512 0 L 0 0 z M 294.52734 67.064453 C 296.54038 67.050188 298.74462 67.512462 300.47852 67.212891 C 301.57671 67.87183 302.57423 68.739755 303.77344 69.189453 C 306.58502 70.243814 315.02195 68.539944 318.26953 69.189453 C 319.79252 69.49405 321.35983 69.543065 322.88281 69.847656 C 323.84226 70.039545 325.51244 71.55808 326.17773 71.824219 C 327.66242 72.41809 329.25348 72.703288 330.79102 73.142578 C 331.4499 73.581875 332.05924 74.106766 332.76758 74.460938 C 334.0101 75.082191 335.51456 75.090078 336.7207 75.779297 C 338.81005 76.973204 339.29432 78.054365 341.33398 79.074219 C 342.14401 79.479224 343.50227 77.723272 343.96875 79.732422 C 344.92229 80.277296 345.69168 81.099795 346.60547 81.708984 C 347.60558 82.375723 348.95515 82.554721 349.90039 83.027344 C 350.87929 83.516786 352.68679 84.645088 353.19531 85.662109 C 353.29351 85.858568 353.01255 86.200427 353.19531 86.322266 C 353.77324 86.707549 354.56881 86.635857 355.17188 86.980469 C 358.57814 88.926924 365.04557 96.181308 366.37305 99.5 C 367.36828 101.98806 367.03125 104.80721 367.03125 107.4082 C 367.03125 109.7677 367.4569 113.1468 366.37305 115.31445 C 365.836 116.38855 361.09326 119.93609 359.7832 121.24609 C 358.31782 122.71147 348.4434 123.08602 347.92188 122.56445 C 347.76657 122.40913 348.02002 122.10076 347.92188 121.9043 C 347.27374 120.60801 347.45758 121.58693 346.60547 121.24609 C 345.69343 120.88127 344.90064 120.23836 343.96875 119.92773 C 338.12147 117.97867 330.26206 116.03926 324.85938 113.33789 C 323.05185 112.43413 321.85115 111.1117 320.24805 110.04297 C 319.69978 109.67745 318.85891 110.33766 318.26953 110.04297 C 318.07307 109.94474 318.47791 109.45427 318.26953 109.38477 C 315.69461 108.52647 312.38496 109.92114 309.70312 109.38477 C 306.57872 108.75988 303.58438 107.12515 300.47852 106.08984 C 295.54469 104.44529 289.75673 104.13727 285.32227 101.47656 C 283.69314 100.49908 282.85779 98.110902 282.02734 96.865234 C 281.68273 96.348321 281.22786 95.891487 280.71094 95.546875 C 280.52819 95.425036 280.14898 95.743334 280.05078 95.546875 C 279.85432 95.153956 280.1897 94.645263 280.05078 94.228516 C 279.47371 92.497303 278.68946 94.71292 278.07422 92.251953 C 277.28168 89.081835 275.73295 82.801109 276.75586 79.732422 C 277.81332 76.56004 280.77615 75.344498 283.3457 73.802734 C 283.61207 73.642922 283.78621 73.362226 284.00586 73.142578 C 284.00586 72.92293 283.8231 72.606214 284.00586 72.484375 C 285.23184 71.667061 286.71595 71.298868 287.95898 70.507812 C 289.14553 69.752737 290.08368 68.651238 291.25391 67.871094 C 292.18111 67.252956 293.31952 67.073012 294.52734 67.064453 z M 197.88086 71.511719 C 199.06558 71.490808 200.17554 71.556562 200.97852 71.824219 C 203.61881 72.704335 207.19617 74.144916 210.20312 73.142578 C 211.135 72.831949 211.90796 72.134839 212.83984 71.824219 C 214.81657 71.165311 217.4445 72.463182 219.42773 71.824219 C 220.52597 72.483154 221.57712 73.22997 222.72266 73.802734 C 223.12052 74.00166 224.39461 73.498136 224.69922 73.802734 C 224.85453 73.958049 224.5439 74.305624 224.69922 74.460938 C 225.15577 74.917483 227.53759 74.662588 227.99414 75.119141 C 228.46009 75.585076 227.69945 76.506334 227.99414 77.095703 C 228.09237 77.292162 228.5561 76.899244 228.6543 77.095703 C 228.85076 77.488622 228.51538 77.997318 228.6543 78.414062 C 228.93607 79.259385 229.69088 80.205468 229.97266 81.050781 C 230.26458 81.926537 229.55433 83.509055 229.97266 84.345703 C 230.70114 85.802657 230.38014 84.549455 231.28906 85.003906 C 232.44112 85.579938 233.1727 87.545756 233.92578 88.298828 C 234.14543 88.518477 234.80363 88.737383 234.58398 88.957031 C 234.42866 89.112346 234.10854 88.835192 233.92578 88.957031 C 230.19848 91.441881 226.89744 94.755815 224.04102 98.183594 C 221.55328 101.16888 218.62242 103.76472 216.13477 106.75 C 214.5359 108.66865 216.13959 107.38984 215.47461 109.38477 C 215.16061 110.32671 213.33383 110.20923 212.83984 110.70312 C 211.2841 112.25895 216.51477 110.35714 211.52148 112.02148 C 209.92955 112.55215 207.87264 112.13881 206.25 112.67969 C 204.96523 113.10794 203.91291 114.17734 202.95508 114.65625 C 201.99804 115.13477 200.71026 115.10443 199.66016 115.31445 C 197.9833 115.64982 196.64415 116.9735 195.04688 117.29297 C 193.75458 117.55143 192.37229 116.97333 191.09375 117.29297 C 190.7924 117.36831 190.74014 117.89027 190.43555 117.95117 C 187.27155 118.58397 182.20722 118.28457 179.23242 117.29297 C 177.1523 116.5996 170.86913 117.29297 168.68945 117.29297 C 166.87204 117.29297 165.72771 118.05951 164.07812 118.60938 C 163.52249 118.79453 162.61997 118.34919 162.09961 118.60938 C 160.69364 119.31227 159.43056 120.57515 157.48828 119.92773 C 157.19359 119.8295 157.10595 119.40845 156.82812 119.26953 C 156.12684 118.91885 156.21309 119.62022 155.51172 119.26953 L 152.875 117.95117 C 152.48208 117.75471 151.86727 118.2618 151.55664 117.95117 C 151.40133 117.79586 151.71196 117.44828 151.55664 117.29297 C 150.92315 116.65952 148.44918 117.47857 147.60352 116.63281 C 146.78684 115.81613 147.29141 114.37621 146.94531 113.33789 C 146.5541 112.16425 145.24231 110.75245 144.96875 109.38477 C 144.83953 108.73862 145.17713 108.03333 144.96875 107.4082 C 144.81344 106.94226 143.87003 107.1893 143.65039 106.75 C 143.01597 105.48118 143.01294 106.78014 141.67383 104.77148 C 141.55199 104.58872 141.82915 104.26859 141.67383 104.11328 C 141.51852 103.95796 141.16898 104.26859 141.01367 104.11328 C 140.27131 103.37092 142.71494 99.530012 142.99023 98.841797 C 143.49266 97.585736 144.05866 95.478159 144.30859 94.228516 C 144.51305 93.206251 143.98105 91.91621 144.30859 90.933594 C 144.99418 88.876835 144.74836 91.153975 145.62695 90.275391 C 145.78226 90.120077 145.47163 89.772493 145.62695 89.617188 C 146.14618 89.097956 149.06085 88.157895 149.58008 87.638672 C 149.73539 87.483357 149.38362 87.078699 149.58008 86.980469 C 149.98255 86.779233 153.35389 86.081842 154.19336 85.662109 C 155.07592 85.220837 155.10688 84.090374 155.51172 83.685547 C 155.78785 83.40942 157.08892 83.227024 157.48828 83.027344 C 160.56158 81.490706 158.52677 81.918388 161.44141 79.732422 C 162.99477 78.567346 165.64972 78.903493 167.37109 77.755859 C 167.87899 77.417268 170.54998 75.895337 170.66602 75.779297 C 170.82133 75.623982 170.46956 75.217371 170.66602 75.119141 C 172.61053 74.14685 175.8271 75.815439 177.91602 75.119141 C 179.71602 74.519109 180.6734 73.142578 182.52734 73.142578 C 184.49108 73.142578 185.58462 72.602255 187.14062 71.824219 C 188.34427 71.222395 191.15725 71.824219 192.41211 71.824219 C 193.72432 71.824219 195.90633 71.54657 197.88086 71.511719 z M 372.86719 156.91016 C 373.49407 156.92698 374.16644 157.10177 374.93945 157.48828 C 375.13591 157.58648 375.44234 157.33297 375.59766 157.48828 C 376.71944 158.61006 376.72943 159.77989 378.23438 160.7832 C 379.57563 161.67741 383.91816 162.59584 384.16406 162.75977 C 384.57272 163.03221 384.4407 163.77137 384.82422 164.07812 C 385.59127 164.69176 386.58046 164.95523 387.45898 165.39453 C 387.67863 165.39453 387.92268 165.29633 388.11914 165.39453 C 390.74888 166.7094 394.40864 168.48987 396.68555 170.00781 C 397.69552 170.68112 398.41859 172.48024 398.66211 172.64258 C 399.594 173.26383 401.02514 172.68147 401.95703 173.30273 C 402.36569 173.57517 402.26793 174.2738 402.61523 174.62109 C 404.04839 176.05425 406.26238 177.30014 407.22852 179.23242 C 407.42498 179.62534 407.03206 180.15786 407.22852 180.55078 C 408.30006 182.694 413.53615 186.87913 415.13477 189.11719 C 416.1515 190.54072 418.81122 194.70524 419.08789 196.36523 C 419.52625 198.99534 419.08789 203.07355 419.08789 205.58984 C 419.08789 208.02832 419.71745 212.29818 419.08789 214.81641 C 418.80101 215.96393 418.05837 216.96381 417.77148 218.11133 C 417.21627 220.33217 417.51698 223.23167 416.45312 225.35938 C 414.89207 228.48156 416.83916 220.90641 414.47656 227.99414 C 414.26818 228.61927 414.63638 229.33339 414.47656 229.97266 C 414.09987 231.47936 412.08439 232.00184 411.18164 233.26562 C 409.88959 235.07449 410.10131 236.32252 408.54492 237.87891 C 408.19762 238.22621 407.44817 238.09781 407.22852 238.53711 C 406.93383 239.12648 407.52321 239.92631 407.22852 240.51562 C 407.00887 240.95492 406.25745 240.82653 405.91016 241.17383 C 405.56287 241.52112 405.65866 242.21975 405.25 242.49219 C 404.88448 242.73587 404.35034 242.35328 403.93359 242.49219 C 402.69867 242.90383 396.83447 246.6632 395.36719 247.76367 C 393.9256 248.84486 393.29879 250.49021 392.07227 251.7168 C 391.72498 252.06409 391.06073 251.99148 390.75391 252.375 C 390.6938 252.45015 389.6892 255.21399 388.77734 255.66992 C 388.10161 256.00778 386.81634 255.99222 386.14062 256.33008 C 385.15839 256.82123 385.13783 258.67195 383.50586 258.30664 C 383.21457 258.42315 381.00342 258.83057 380.86914 258.96484 C 380.71383 259.12016 381.02446 259.46968 380.86914 259.625 C 380.52185 259.97229 379.90003 259.93591 379.55273 260.2832 C 378.99274 260.8432 378.84271 261.75278 378.23438 262.25977 C 377.47976 262.88856 376.38349 262.98882 375.59766 263.57812 C 375.42194 263.70991 375.69586 264.03987 375.59766 264.23633 C 374.70806 266.01551 372.28477 266.89297 370.98633 268.19141 C 368.55566 270.62201 372.56453 268.45629 369.00977 270.82617 C 368.82284 270.9508 363.46137 271.67594 363.07812 271.48438 C 362.52252 271.20654 362.34915 270.36443 361.75977 270.16797 C 359.44782 269.39732 359.02186 270.91288 357.14844 269.50781 C 352.6154 266.1081 348.06636 260.43434 345.28711 255.66992 C 342.41288 250.74273 348.32251 257.4886 342.65039 250.39844 C 342.51318 250.22692 342.21184 250.39844 341.99219 250.39844 C 341.55289 249.7395 341.11313 249.08075 340.67383 248.42188 C 339.92573 246.92569 339.70088 245.14683 338.69727 243.80859 C 337.60765 242.35583 335.67377 241.40486 334.74414 239.85547 C 333.48067 237.74968 332.54746 235.4621 331.44922 233.26562 C 328.28236 226.93196 321.49265 223.23915 318.26953 216.79297 C 316.54353 213.34097 317.61133 204.94393 317.61133 200.97852 C 317.61133 197.19828 316.7554 190.56432 317.61133 187.14062 C 317.69983 186.78668 320.63652 183.38979 320.90625 183.1875 C 321.25769 182.92392 321.80786 183.32641 322.22461 183.1875 C 325.0295 182.25253 325.11541 179.63648 326.83594 177.91602 C 326.99126 177.7607 327.42659 178.12439 327.49609 177.91602 C 327.91859 176.64851 327.67468 175.20795 328.1543 173.96094 C 328.85955 172.1273 329.91243 170.44664 330.79102 168.68945 C 330.92994 168.41162 331.38832 168.33585 331.44922 168.03125 C 331.75076 166.52357 330.96301 164.8766 331.44922 163.41797 C 331.51868 163.20959 331.92466 163.5398 332.10742 163.41797 C 332.62434 163.07335 332.84895 162.33034 333.42578 162.09961 C 341.12725 159.01899 336.40055 161.18488 340.01562 160.7832 C 349.0076 159.78409 357.96651 159.06451 367.03125 159.46484 C 369.5212 158.21987 370.98654 156.85968 372.86719 156.91016 z M 163.875 163.26367 C 167.85043 163.27119 172.28678 165.46686 175.2793 167.37109 C 176.8517 168.37171 177.91453 170.00828 179.23242 171.32617 C 181.17671 173.27046 183.32094 172.91336 184.50391 175.2793 C 184.70037 175.67222 184.50391 176.15836 184.50391 176.59766 C 184.50391 187.77003 185.13533 178.69154 182.52734 189.77539 C 181.50992 194.09942 181.10175 198.54728 180.55078 202.95508 C 180.15991 206.08192 181.46687 213.38649 180.55078 216.13477 C 180.45255 216.42946 180.11223 216.57332 179.89258 216.79297 L 179.89258 219.42773 C 179.89258 221.08305 181.3654 223.73013 180.55078 225.35938 C 180.27294 225.91495 179.46315 226.10091 179.23242 226.67773 C 178.89607 227.51859 178.97923 228.50248 178.57422 229.3125 C 177.36301 231.73493 174.93552 235.04374 173.30273 237.2207 C 172.68068 238.05006 173.08295 240.07535 172.64258 240.51562 C 172.08259 241.07562 171.14119 241.19847 170.66602 241.83203 C 170.40244 242.18347 170.92959 242.79895 170.66602 243.15039 C 167.23048 247.7311 167.54355 246.27481 164.73633 249.08203 C 163.95976 249.8586 163.61725 251.03073 162.75977 251.7168 C 162.41674 251.99123 161.80693 251.47312 161.44141 251.7168 C 161.03275 251.98924 161.13049 252.68786 160.7832 253.03516 C 159.92367 253.89468 156.98607 254.02706 156.16992 254.35352 C 154.08785 255.18625 151.86625 257.07494 149.58008 257.64648 C 149.1539 257.75303 148.67847 257.50756 148.26172 257.64648 C 145.56242 258.54625 143.60188 262.28412 141.01367 263.57812 C 140.23171 263.9691 131.72787 261.60156 130.4707 261.60156 C 126.37021 261.60156 122.51548 261.84568 118.60938 260.2832 C 118.15336 260.10079 117.73227 259.84464 117.29297 259.625 C 117.29297 259.40535 117.48943 259.06304 117.29297 258.96484 C 116.90005 258.76838 116.36753 259.1613 115.97461 258.96484 C 115.77815 258.86661 116.18299 258.37614 115.97461 258.30664 C 114.98619 257.97716 113.6681 258.63611 112.67969 258.30664 C 111.79562 258.01195 111.4785 256.847 110.70312 256.33008 C 108.84342 255.09019 111.8391 259.9917 108.72656 255.01172 C 105.17112 249.32286 107.82754 253.05565 106.08984 248.42188 C 105.57248 247.04225 104.47064 245.8982 104.11328 244.46875 C 102.9367 239.76243 104.91334 230.02394 105.43164 225.35938 C 105.59066 223.92818 106.08784 208.88977 106.08984 208.88477 C 106.18807 208.68831 106.6518 209.08123 106.75 208.88477 C 107.08262 208.21954 106.8887 205.45114 107.4082 204.93164 C 107.56351 204.77632 107.9111 205.08695 108.06641 204.93164 C 108.4881 204.50996 109.85501 202.20059 110.04297 201.63672 C 110.82235 199.29856 108.97644 201.30432 110.70312 199.00195 C 112.33624 196.82456 111.76826 198.6438 112.67969 196.36523 C 113.30395 194.80466 113.50891 193.21934 113.99805 191.75195 C 114.34733 190.70409 115.47401 190.1184 115.97461 189.11719 C 116.2693 188.52781 115.67992 187.73 115.97461 187.14062 C 116.07284 186.94426 116.4775 187.29594 116.63281 187.14062 C 116.85246 186.92107 117.07332 185.38371 117.29297 185.16406 C 117.44828 185.00874 117.75471 185.26226 117.95117 185.16406 C 118.50684 184.88622 118.71386 184.12354 119.26953 183.8457 C 120.07956 183.44069 121.43782 185.19666 121.9043 183.1875 C 122.43703 182.86786 122.68994 182.18877 123.22266 181.86914 C 125.69372 180.38644 129.45937 179.46904 131.78906 177.91602 C 131.97182 177.79418 131.61334 177.38765 131.78906 177.25586 C 134.66968 175.0954 145.76029 172.15143 146.28516 169.34961 C 146.6454 169.63779 151.50136 174.07346 152.875 171.32617 C 153.32946 170.41725 152.07623 170.73629 153.5332 170.00781 C 154.64213 169.45335 154.96994 169.65658 155.51172 168.03125 C 155.77802 167.23233 156.01127 165.28097 156.82812 164.73633 C 157.40431 164.35221 159.38545 164.44692 160.12305 164.07812 C 161.27513 163.50217 162.54986 163.26117 163.875 163.26367 z M 459.28516 231.94922 L 458.625 347.92188 L 403.93359 342.65039 L 442.15234 237.2207 L 459.28516 231.94922 z M 252.76172 236.33594 C 258.84687 236.31588 264.91281 236.48152 270.82617 237.2207 C 272.35184 237.41141 273.94782 236.84779 275.43945 237.2207 C 283.0211 239.11611 279.26336 239.07588 285.98242 240.51562 C 287.50109 240.84105 289.12031 240.68268 290.59375 241.17383 C 296.06135 242.99638 300.62609 247.04916 305.0918 250.39844 C 305.26752 250.53023 305.59469 250.24313 305.75 250.39844 C 307.16705 251.81549 308.9328 255.06228 309.70312 256.98828 C 310.31241 258.5115 309.1816 260.69498 309.70312 262.25977 C 309.80135 262.55446 310.24792 262.62956 310.36328 262.91797 C 311.18381 264.96929 311.01083 267.49535 311.68164 269.50781 C 311.83696 269.97375 312.24354 270.34456 312.33984 270.82617 C 312.82024 273.22821 311.56786 276.41844 312.33984 278.73438 C 315.30447 287.62821 312.78872 276.78412 315.63477 285.32227 C 318.01684 292.46862 319.35591 301.44034 318.26953 309.04492 C 318.11422 310.13212 316.59468 310.62566 316.29297 311.68164 C 316.0516 312.52643 316.5708 313.48291 316.29297 314.31641 C 316.03023 315.10461 310.05197 322.5921 309.70312 322.88281 C 309.36572 323.16404 308.77964 322.68635 308.38672 322.88281 C 307.94742 323.10246 308.07385 323.85388 307.72656 324.20117 C 307.06761 324.86012 306.30913 325.4323 305.75 326.17773 C 305.45531 326.57064 305.31145 327.05679 305.0918 327.49609 C 305.0918 327.71573 305.21364 327.97154 305.0918 328.1543 C 304.74718 328.67122 304.21273 329.03336 303.77344 329.47266 C 303.55379 329.47266 303.24702 329.29694 303.11523 329.47266 C 302.23125 330.65142 301.49603 331.99633 301.13867 333.42578 C 300.82858 334.66614 301.44876 336.13854 301.13867 337.37891 C 300.86085 338.49018 297.43854 339.91373 297.18359 340.01562 C 296.57178 340.26035 295.84275 339.84232 295.20703 340.01562 C 293.19669 340.5639 291.29249 341.46188 289.27734 341.99219 C 281.88532 343.93752 269.87416 344.92056 262.25977 343.96875 C 261.64331 343.89169 261.53079 342.84685 260.94141 342.65039 C 260.03072 342.34683 250.61026 341.34908 250.39844 341.33398 C 247.36285 341.11716 244.19261 341.71133 241.17383 341.33398 C 236.64183 340.76748 232.41847 339.14514 227.99414 338.03906 C 227.56796 337.93252 227.08906 338.19331 226.67773 338.03906 C 224.37843 337.17679 222.38727 335.60641 220.08789 334.74414 C 216.52005 333.4062 213.03922 332.53809 209.54492 330.79102 C 208.02129 330.0292 205.64191 328.4084 204.27344 327.49609 C 203.75653 327.15147 203.51076 326.45556 202.95508 326.17773 C 201.80297 325.60168 200.23522 325.93062 199.00195 325.51953 C 198.79357 325.45007 199.15726 325.01461 199.00195 324.85938 C 197.91326 323.77069 194.43576 322.27171 193.07031 320.90625 C 190.5691 318.40496 191.09375 318.10169 191.09375 314.97461 C 191.09375 313.65672 190.57461 312.23281 191.09375 311.02148 C 192.06112 308.76438 193.6121 306.76136 194.38867 304.43164 C 194.52759 304.01489 194.24976 303.53199 194.38867 303.11523 C 194.85711 301.71001 195.95948 300.12494 196.36523 298.50195 C 196.47177 298.07577 196.16877 297.57651 196.36523 297.18359 C 196.7537 296.40664 197.79717 294.8148 197.02539 293.88867 C 196.03109 292.69551 194.592 291.88605 193.73047 290.59375 C 192.76066 289.13904 193.07031 285.47172 193.07031 284.00586 C 193.07031 280.75086 192.42573 276.68575 193.07031 273.46289 C 193.20653 272.78179 193.51082 272.14324 193.73047 271.48438 C 193.95012 271.04508 194.26955 270.64445 194.38867 270.16797 C 195.14262 267.15224 193.05694 270.85284 195.04688 266.87305 C 195.32463 266.31738 196.08739 266.11036 196.36523 265.55469 C 196.72479 264.83556 197.19957 262.90505 197.68359 262.25977 C 199.72135 259.54275 203.89701 257.83572 206.9082 256.33008 C 207.10466 256.23188 207.41304 256.4854 207.56836 256.33008 C 207.72367 256.17477 207.47016 255.86638 207.56836 255.66992 C 207.92253 254.96157 208.37777 254.30176 208.88477 253.69336 C 211.41388 250.65833 214.01115 247.85984 216.13477 244.46875 C 216.79363 243.59016 217.82237 242.89157 218.11133 241.83203 C 218.57368 240.13676 216.86881 237.80307 218.11133 236.56055 C 218.45747 236.21441 231.85592 236.56055 234.58398 236.56055 C 240.57159 236.56055 246.6765 236.35599 252.76172 236.33594 z M 60.767578 244.82031 L 75.4375 251.33984 L 105.23828 334.92383 L 104.77344 335.27344 L 84.517578 345.86719 L 56.578125 310.59375 L 52.037109 252.38672 L 52.269531 245.51758 L 60.767578 244.82031 z M 417.76172 378.82422 L 402.36719 400.47461 L 377.91992 416.19727 L 331.57422 441.63281 L 337.00781 427.0625 L 347.79102 415.12695 L 368.12305 398.00586 L 395.12305 379.56641 L 417.76172 378.82422 z M 108.33008 381.13086 L 157.22656 407.96484 L 189.08398 444.51367 L 185.625 444.51367 L 153.6875 428.46289 L 132.36719 415.04492 L 96.394531 385.57422 L 108.33008 381.13086 z M 207.43945 381.21289 L 322.35547 382.61133 L 309.75977 426.4043 L 260.12305 439.57617 L 201.26562 426.48633 L 207.43945 381.21289 z " />
  <path
     d="m 234.36719,290.28906 h -8.71875 v -57.79687 l -17.48438,6.42187 v -7.875 l 24.84375,-9.32812 h 1.35938 z m 69.46875,-63.375 -28.26563,63.375 h -9.09375 l 28.17188,-61.125 h -36.9375 v -7.125 h 46.125 z"
     id="text1"
     style="font-size:96px;font-family:Roboto;-inkscape-font-specification:Roboto;fill:#333333;stroke-width:0.659"
     aria-label="17" />
  <path
     style="fill:#333333;stroke-width:0.613737;fill-opacity:1"
     d="M 0,256.11185 V 0.46565792 H 255.6462 511.29239 V 256.11185 511.75805 H 255.6462 0 Z m 312.57997,174.76272 c 30.66549,-33.4731 55.89514,-61.23795 56.06588,-61.69967 0.18325,-0.49554 -46.1125,-0.83949 -112.99653,-0.83949 H 142.34234 l 4.49824,5.01408 c 22.20311,24.74925 108.93692,118.79316 109.39478,118.61479 0.32405,-0.12624 25.67912,-27.61661 56.34461,-61.08971 z m -105.50663,30.35959 c -3.41568,-3.64275 -84.40074,-92.34108 -84.59126,-92.64799 -0.30348,-0.48889 -54.496024,4.82952 -54.496024,5.34818 0,0.31085 15.37047,10.38895 34.156594,22.39581 18.78613,12.00686 50.32281,32.19134 70.08152,44.8544 19.75871,12.66308 36.32145,23.03561 36.8061,23.05007 0.48465,0.0145 -0.39597,-1.33574 -1.95693,-3.00047 z m 134.086,-20.89065 c 56.11827,-35.86811 102.56406,-65.6568 103.0007,-66.061 0.21342,-0.19756 0.21342,-0.52033 0,-0.71726 -0.21343,-0.19692 -12.53693,-1.44735 -27.38556,-2.77872 -25.59539,-2.29496 -27.07563,-2.33682 -28.50173,-0.80609 -3.93573,4.22449 -82.55737,90.43734 -84.10965,92.23076 -0.97577,1.12736 -1.47042,2.04974 -1.09923,2.04974 0.3712,0 17.51417,-10.76284 38.09547,-23.91743 z M 85.480796,356.56821 c 19.199494,-1.68174 29.012524,-2.88952 28.773584,-3.54147 C 83.955294,270.3545 52.444426,185.82453 51.920858,185.81295 c -0.384168,-0.008 -0.698487,39.20297 -0.698487,87.13659 v 87.15202 l 2.561118,-0.49062 c 1.408615,-0.26985 15.672403,-1.63908 31.697307,-3.04273 z M 460.07002,272.72032 c 0,-47.97829 -0.16945,-87.05863 -0.37657,-86.84521 -0.67791,0.69858 -62.20358,167.68971 -61.87549,167.94058 0.17576,0.1344 13.94005,1.52013 30.58732,3.0794 16.64727,1.55927 30.58209,2.88532 30.96625,2.94676 0.38417,0.0614 0.69849,-39.14324 0.69849,-87.12153 z m -86.97171,79.2583 C 372.0146,349.15453 256.56957,152.2704 255.99726,152.27027 c -0.71075,-1.6e-4 -117.2312,199.08329 -117.2312,200.29782 0,0.52957 45.64868,0.86627 117.44543,0.86627 106.12033,0 117.39157,-0.14038 116.88682,-1.45574 z M 184.6705,243.87225 c 31.65025,-54.09661 57.3136,-98.58978 57.02967,-98.87371 -0.52534,-0.52533 -185.949625,3.3643 -186.497472,3.91215 -0.431073,0.43107 70.850562,193.35074 71.434532,193.33346 0.26806,-0.008 26.38304,-44.27528 58.03327,-98.3719 z m 237.09843,1.08604 c 19.46801,-52.7468 35.28119,-96.0185 35.14037,-96.15931 -0.5602,-0.5602 -185.91884,-4.26736 -186.45707,-3.72912 -0.31741,0.3174 25.31827,44.82377 56.96818,98.90304 31.6499,54.07927 57.86182,98.00256 58.24871,97.60732 0.38688,-0.39525 16.6318,-43.87511 36.09981,-96.62193 z M 157.85803,131.31575 c 39.44123,-0.78798 76.00702,-1.67457 81.25731,-1.97022 l 9.54599,-0.53753 V 74.316005 c 0,-43.604509 -0.23579,-54.401515 -1.18013,-54.039139 C 246.41575,20.68572 72.710059,131.4925 71.788928,132.35089 c -0.646029,0.60203 11.335153,0.45793 86.069102,-1.03514 z m 280.75847,0.14338 c -0.75005,-0.68935 -8.27874,-5.64368 -16.73043,-11.0096 C 413.43438,115.0836 374.60668,90.292542 335.60229,65.358291 296.5979,40.424041 264.43258,20.02329 264.12381,20.02329 c -0.30879,0 -0.56143,24.51689 -0.56143,54.481976 0,51.235204 0.0971,54.486904 1.6298,54.564704 7.30364,0.37074 142.52432,3.39447 156.66063,3.50316 15.23917,0.11717 17.91012,-0.0603 16.76369,-1.114 z"
     id="path2" />
</svg>
